<svg width="1024" height="1024" viewBox="0 0 1024 1024" fill="none" xmlns="http://www.w3.org/2000/svg">
  <g clip-path="url(#clip0_900_27382)">
  <rect width="1024" height="1024" fill="url(#paint0_linear_900_27382)"/>
  <g filter="url(#filter0_di_900_27382)">
  <path fill-rule="evenodd" clip-rule="evenodd" d="M512.364 234.325L562.518 239.413L478.927 325.912V237.96L512.364 234.325ZM379.345 293.203L413.508 333.181L441.13 365.164L450.579 355.714L458.575 346.992V240.14L379.345 248.863V293.203ZM478.927 409.504V354.988L587.959 242.322L687.541 253.225L502.187 436.398L490.557 423.314L478.927 409.504ZM478.927 487.28L488.377 478.557L500.733 466.2L667.189 658.823L614.127 720.608L478.927 562.875V487.28ZM680.272 642.508L846 449.885L776.22 352.484L707.166 260.897L515.27 450.612L680.272 642.508ZM428.773 503.997L384.433 453.116L440.403 395.692L458.575 417.499V479.283L430.953 506.905L428.773 503.997ZM458.577 539.614V507.632L444.039 522.169L458.577 539.614ZM456.395 383.335L454.214 381.154L456.395 378.247L458.576 376.066V386.242L456.395 383.335ZM416.416 521.442L379.345 477.829V557.786L393.882 543.248L416.416 521.442ZM478.927 800.564V594.131L601.043 735.872L512.364 839.089L478.927 800.564ZM426.592 380.429L404.786 354.988L379.345 324.459V429.856L404.059 403.689L426.592 380.429ZM429.499 536.706L458.575 570.869V777.303L379.345 684.263V586.134L400.424 565.054L429.499 536.706ZM358.993 450.935V301.198V269.942V251.043L322.649 254.678L248.507 353.533L178 450.935L358.993 661.003V606.487V578.139V454.569V450.935ZM484.742 447.301L487.65 450.935L481.835 456.023L478.927 458.931V440.759L484.742 447.301Z" fill="#F5BC21"/>
  <path fill-rule="evenodd" clip-rule="evenodd" d="M512.364 234.325L562.518 239.413L478.927 325.912V237.96L512.364 234.325ZM379.345 293.203L413.508 333.181L441.13 365.164L450.579 355.714L458.575 346.992V240.14L379.345 248.863V293.203ZM478.927 409.504V354.988L587.959 242.322L687.541 253.225L502.187 436.398L490.557 423.314L478.927 409.504ZM478.927 487.28L488.377 478.557L500.733 466.2L667.189 658.823L614.127 720.608L478.927 562.875V487.28ZM680.272 642.508L846 449.885L776.22 352.484L707.166 260.897L515.27 450.612L680.272 642.508ZM428.773 503.997L384.433 453.116L440.403 395.692L458.575 417.499V479.283L430.953 506.905L428.773 503.997ZM458.577 539.614V507.632L444.039 522.169L458.577 539.614ZM456.395 383.335L454.214 381.154L456.395 378.247L458.576 376.066V386.242L456.395 383.335ZM416.416 521.442L379.345 477.829V557.786L393.882 543.248L416.416 521.442ZM478.927 800.564V594.131L601.043 735.872L512.364 839.089L478.927 800.564ZM426.592 380.429L404.786 354.988L379.345 324.459V429.856L404.059 403.689L426.592 380.429ZM429.499 536.706L458.575 570.869V777.303L379.345 684.263V586.134L400.424 565.054L429.499 536.706ZM358.993 450.935V301.198V269.942V251.043L322.649 254.678L248.507 353.533L178 450.935L358.993 661.003V606.487V578.139V454.569V450.935ZM484.742 447.301L487.65 450.935L481.835 456.023L478.927 458.931V440.759L484.742 447.301Z" fill="url(#paint1_linear_900_27382)" fill-opacity="0.2"/>
  <path fill-rule="evenodd" clip-rule="evenodd" d="M512.364 234.325L562.518 239.413L478.927 325.912V237.96L512.364 234.325ZM379.345 293.203L413.508 333.181L441.13 365.164L450.579 355.714L458.575 346.992V240.14L379.345 248.863V293.203ZM478.927 409.504V354.988L587.959 242.322L687.541 253.225L502.187 436.398L490.557 423.314L478.927 409.504ZM478.927 487.28L488.377 478.557L500.733 466.2L667.189 658.823L614.127 720.608L478.927 562.875V487.28ZM680.272 642.508L846 449.885L776.22 352.484L707.166 260.897L515.27 450.612L680.272 642.508ZM428.773 503.997L384.433 453.116L440.403 395.692L458.575 417.499V479.283L430.953 506.905L428.773 503.997ZM458.577 539.614V507.632L444.039 522.169L458.577 539.614ZM456.395 383.335L454.214 381.154L456.395 378.247L458.576 376.066V386.242L456.395 383.335ZM416.416 521.442L379.345 477.829V557.786L393.882 543.248L416.416 521.442ZM478.927 800.564V594.131L601.043 735.872L512.364 839.089L478.927 800.564ZM426.592 380.429L404.786 354.988L379.345 324.459V429.856L404.059 403.689L426.592 380.429ZM429.499 536.706L458.575 570.869V777.303L379.345 684.263V586.134L400.424 565.054L429.499 536.706ZM358.993 450.935V301.198V269.942V251.043L322.649 254.678L248.507 353.533L178 450.935L358.993 661.003V606.487V578.139V454.569V450.935ZM484.742 447.301L487.65 450.935L481.835 456.023L478.927 458.931V440.759L484.742 447.301Z" fill="url(#paint2_linear_900_27382)" fill-opacity="0.3"/>
  </g>
  </g>
  <defs>
  <filter id="filter0_di_900_27382" x="98" y="194.325" width="828" height="764.764" filterUnits="userSpaceOnUse" color-interpolation-filters="sRGB">
  <feFlood flood-opacity="0" result="BackgroundImageFix"/>
  <feColorMatrix in="SourceAlpha" type="matrix" values="0 0 0 0 0 0 0 0 0 0 0 0 0 0 0 0 0 0 127 0" result="hardAlpha"/>
  <feOffset dy="40"/>
  <feGaussianBlur stdDeviation="40"/>
  <feComposite in2="hardAlpha" operator="out"/>
  <feColorMatrix type="matrix" values="0 0 0 0 0 0 0 0 0 0 0 0 0 0 0 0 0 0 0.2 0"/>
  <feBlend mode="normal" in2="BackgroundImageFix" result="effect1_dropShadow_900_27382"/>
  <feBlend mode="normal" in="SourceGraphic" in2="effect1_dropShadow_900_27382" result="shape"/>
  <feColorMatrix in="SourceAlpha" type="matrix" values="0 0 0 0 0 0 0 0 0 0 0 0 0 0 0 0 0 0 127 0" result="hardAlpha"/>
  <feOffset/>
  <feGaussianBlur stdDeviation="10"/>
  <feComposite in2="hardAlpha" operator="arithmetic" k2="-1" k3="1"/>
  <feColorMatrix type="matrix" values="0 0 0 0 1 0 0 0 0 1 0 0 0 0 1 0 0 0 0.25 0"/>
  <feBlend mode="normal" in2="shape" result="effect2_innerShadow_900_27382"/>
  </filter>
  <linearGradient id="paint0_linear_900_27382" x1="731.5" y1="35" x2="199.5" y2="1024" gradientUnits="userSpaceOnUse">
  <stop stop-color="#0D347D"/>
  <stop offset="0.515625" stop-color="#001F58"/>
  <stop offset="0.979167" stop-color="#011538"/>
  </linearGradient>
  <linearGradient id="paint1_linear_900_27382" x1="646.356" y1="234.325" x2="512.184" y2="687.22" gradientUnits="userSpaceOnUse">
  <stop stop-color="#F5BC21"/>
  <stop offset="1" stop-color="#F78700"/>
  </linearGradient>
  <linearGradient id="paint2_linear_900_27382" x1="713.698" y1="234.325" x2="607.092" y2="472.222" gradientUnits="userSpaceOnUse">
  <stop stop-color="white"/>
  <stop offset="1" stop-color="white" stop-opacity="0.2"/>
  </linearGradient>
  <clipPath id="clip0_900_27382">
  <rect width="1024" height="1024" fill="white"/>
  </clipPath>
  </defs>
</svg>